# xmcd
#
# Track frame offsets:
# 150
# 17082
# 29294
# 47202
# 61343
# 81448
# 94541
# 111033
# 131636
# 145562
# 164353
# 181575
#
# Disc length: 2674 seconds
#
#
# Revision: 0
# Processed by: cddbd v1.5.1PL0 Copyright (c) Steve Scherf et al.
# Submitted via: FreeRIP 2.70 
#
DISCID=940a700c
DTITLE=Pheasant Pluckers - The Rising Sun Sets
DYEAR=2000
DGENRE=Bluegrass
TTITLE0=Where I Left Off
TTITLE1=Best Foot Forward
TTITLE2=Loaded and Broke
TTITLE3=Hot Dog
TTITLE4=Five Million Star Hotel
TTITLE5=Keep My Skillet Good and Greasy
TTITLE6=She Floated Away
TTITLE7=Workin' It Out
TTITLE8=Beautiful Barbed Wire Canoe
TTITLE9=Obsession
TTITLE10=Last Old Dollar
TTITLE11=Cripple Creek
EXTD=
EXTT0=
EXTT1=
EXTT2=
EXTT3=
EXTT4=
EXTT5=
EXTT6=
EXTT7=
EXTT8=
EXTT9=
EXTT10=
EXTT11=
PLAYORDER=
